<svg width="183" height="50" viewBox="0 0 183 50" fill="none" xmlns="http://www.w3.org/2000/svg">
<text fill="#1C1D31" xml:space="preserve" style="white-space: pre" font-family="Josefin Sans" font-size="36" letter-spacing="0em"><tspan x="30" y="41">hoppable</tspan></text>
<path d="M7.42012 7.20877C5.28345 12.0839 20.9439 20.7808 15.9286 18.1947C10.9133 15.6087 1.1151 9.93454 3.25177 5.05945C5.38844 0.184363 17.9213 6.42061 22.9366 9.00665C27.9519 11.5927 9.55679 2.33368 7.42012 7.20877Z" fill="#1C1D31"/>
<path d="M17.0734 42.6574C19.5285 37.9621 4.48682 28.0633 9.31721 31.0347C14.1476 34.0062 23.5431 40.4318 21.088 45.1271C18.6329 49.8224 6.54713 42.6224 1.71674 39.6509C-3.11366 36.6795 14.6182 47.3528 17.0734 42.6574Z" fill="#1C1D31"/>
<path d="M0 7.08789L2.81327 10.6175C5.82189 14.3922 9.48187 17.5979 13.6201 20.083L15.1969 21.0299C18.4799 23.0014 21.3651 25.5696 23.7036 28.6021V28.6021C27.5116 33.5401 27.9543 40.2909 24.8237 45.6839L23.4615 48.0305V48.0305C22.3975 40.7593 18.782 34.1036 13.2615 29.2531L11.978 28.1254L11.2346 27.6482C4.23337 23.1546 0 15.4071 0 7.08789V7.08789Z" fill="#F56F5C"/>
</svg>
